<svg width="558" height="292" viewBox="0 0 558 292" fill="none" xmlns="http://www.w3.org/2000/svg">
<path d="M42.36 109.44C37.08 110.16 32.76 112.56 29.64 115.68V109.44C29.64 109.44 28.44 109.44 26.4 109.44C19.2 115.8 6.96 118.8 0 118.8C0 120.12 0 120.6 0 122.04C9.12 122.04 10.32 128.28 10.32 135.84V176.28C10.32 183.84 9.12 190.08 0 190.08C0 191.52 0 193.44 0 193.44H41.88C41.88 193.44 41.88 191.52 41.88 190.08C32.76 190.08 29.64 183.84 29.64 176.28V158.76C33 162.36 37.44 165.24 43.44 166.08C61.68 168.72 73.56 154.68 73.56 137.76C73.56 120.84 60.6 106.92 42.36 109.44ZM46.56 161.88C39.24 163.08 33.6 154.56 30.96 140.28C28.44 125.88 30.96 115.92 38.28 114.6C45.6 113.28 51.24 121.8 53.76 136.2C56.28 150.6 53.88 160.56 46.56 161.88ZM104.582 147.96V81C104.582 81 103.382 81 101.342 81C94.0219 87.48 81.7819 90.36 74.8219 90.36C74.8219 91.68 74.8219 92.28 74.8219 93.72C83.9419 93.72 85.1419 99.96 85.1419 107.52V147.96C85.1419 155.52 83.9419 161.76 74.8219 161.76C74.8219 163.2 74.8219 165 74.8219 165H114.902C114.902 165 114.902 163.2 114.902 161.76C105.662 161.76 104.582 155.52 104.582 147.96ZM183.093 158.76C180.333 160.08 177.693 159.96 176.373 158.4C175.173 156.84 174.453 152.04 173.733 147.84C173.733 147.84 173.133 143.04 171.453 130.92C169.293 115.8 161.373 109.44 142.173 109.44C135.333 109.44 124.893 111.36 122.013 119.16C120.333 123.36 121.653 126.72 124.773 128.28C128.133 129.84 133.053 129.48 135.933 124.32C131.253 120.48 134.733 113.04 142.293 113.64C148.293 113.64 150.453 120 151.533 126.12C152.853 134.4 145.893 132 134.613 134.28C120.453 137.16 116.013 145.32 117.693 154.08C119.373 162.84 128.733 166.08 138.693 166.08C144.693 166.08 151.413 164.64 155.613 158.16C157.413 163.92 164.973 166.08 171.453 166.08C178.173 166.08 181.893 163.92 184.053 161.4C183.693 160.2 183.573 160.08 183.093 158.76ZM147.213 158.64C142.773 159.84 137.373 156.48 136.533 150.96C135.693 144.84 139.293 140.4 144.453 138.84C150.573 137.16 151.893 136.56 152.853 134.64C153.333 137.64 153.813 142.08 154.173 146.4C154.533 152.16 152.973 157.32 147.213 158.64ZM220.457 151.68C218.657 154.68 216.137 156.12 213.017 155.64C210.137 155.04 208.097 153.48 208.097 147.84V115.32H220.817V110.64H208.097V90.36C208.097 90.36 206.417 90.36 204.377 90.36C201.857 103.32 191.177 110.04 179.297 110.64C179.297 112.08 179.297 115.32 179.297 115.32H188.657C188.657 119.04 188.657 146.88 188.657 146.88C188.657 159.72 196.457 166.08 206.057 166.08C214.937 166.08 219.617 160.32 222.737 152.88L220.457 151.68ZM280.825 146.16C270.265 157.56 247.105 155.64 244.225 140.16L281.305 133.92C281.905 118.08 271.105 109.44 255.025 109.44C237.025 109.44 222.505 120.72 224.185 140.04C225.385 154.44 237.385 166.08 255.505 166.08C270.265 166.08 278.905 156.84 282.865 147.84C282.865 147.72 280.825 146.16 280.825 146.16ZM252.865 113.76C261.145 113.04 263.785 120.6 263.185 132.12L243.505 135.48C242.065 124.08 245.305 114.48 252.865 113.76ZM346.132 129.48C337.852 124.92 332.572 122.76 333.172 118.08C333.532 114.72 336.532 113.28 340.732 113.88C346.972 114.6 349.732 118.32 351.772 128.04H354.652L353.452 109.44C353.452 109.44 352.132 109.44 351.412 109.44C350.332 114 348.532 110.4 340.732 109.44C330.172 108.24 318.292 110.88 316.852 122.52C315.532 134.04 326.332 139.32 334.252 143.4C342.652 147.72 348.052 149.64 347.212 155.88C346.732 159.72 341.572 162.12 335.092 161.76C330.292 161.4 324.772 159.96 324.052 156.72C323.332 153.12 325.732 150.6 329.212 150.84C329.092 146.04 326.572 141.6 320.452 140.76C313.132 139.68 307.612 146.4 309.412 153.72C311.332 161.64 324.772 165.6 334.732 166.08C346.972 166.8 362.212 163.92 364.612 152.16C367.372 138.72 354.532 134.16 346.132 129.48ZM406.344 109.44C401.064 110.16 396.744 112.56 393.624 115.68V109.44C393.624 109.44 392.424 109.44 390.384 109.44C383.184 115.8 370.944 118.8 363.984 118.8C363.984 120.12 363.984 120.6 363.984 122.04C373.104 122.04 374.304 128.28 374.304 135.84V176.28C374.304 183.84 373.104 190.08 363.984 190.08C363.984 191.52 363.984 193.44 363.984 193.44H405.864C405.864 193.44 405.864 191.52 405.864 190.08C396.744 190.08 393.624 183.84 393.624 176.28V158.76C396.984 162.36 401.424 165.24 407.424 166.08C425.664 168.72 437.544 154.68 437.544 137.76C437.544 120.84 424.584 106.92 406.344 109.44ZM410.544 161.88C403.224 163.08 397.584 154.56 394.944 140.28C392.424 125.88 394.944 115.92 402.264 114.6C409.584 113.28 415.224 121.8 417.744 136.2C420.264 150.6 417.864 160.56 410.544 161.88ZM473.583 109.44C455.463 109.44 442.383 120.84 442.383 137.76C442.383 154.68 455.463 166.08 473.583 166.08C491.583 166.08 504.663 154.68 504.663 137.76C504.663 120.84 491.583 109.44 473.583 109.44ZM477.663 161.4C470.463 162.6 464.703 154.08 462.183 139.8C459.663 125.4 462.063 115.44 469.383 114.12C476.703 112.8 482.463 121.32 484.983 135.72C487.503 150.12 484.983 160.08 477.663 161.4ZM547.058 151.68C545.258 154.68 542.738 156.12 539.618 155.64C536.738 155.04 534.698 153.48 534.698 147.84V115.32H547.418V110.64H534.698V90.36C534.698 90.36 533.018 90.36 530.978 90.36C528.458 103.32 517.778 110.04 505.898 110.64C505.898 112.08 505.898 115.32 505.898 115.32H515.258C515.258 119.04 515.258 146.88 515.258 146.88C515.258 159.72 523.058 166.08 532.658 166.08C541.538 166.08 546.218 160.32 549.338 152.88L547.058 151.68Z" fill="#183A1D"/>
<ellipse cx="278.594" cy="145.771" rx="228.389" ry="63.638" transform="rotate(-22.3356 278.594 145.771)" fill="#183A1D"/>
<mask id="mask0_109_8" style="mask-type:alpha" maskUnits="userSpaceOnUse" x="65" y="40" width="427" height="211">
<ellipse cx="278.594" cy="145.771" rx="228.389" ry="63.638" transform="rotate(-22.3356 278.594 145.771)" fill="#FEFBE9"/>
</mask>
<g mask="url(#mask0_109_8)">
<path d="M42.36 109.44C37.08 110.16 32.76 112.56 29.64 115.68V109.44C29.64 109.44 28.44 109.44 26.4 109.44C19.2 115.8 6.96 118.8 0 118.8C0 120.12 0 120.6 0 122.04C9.12 122.04 10.32 128.28 10.32 135.84V176.28C10.32 183.84 9.12 190.08 0 190.08C0 191.52 0 193.44 0 193.44H41.88C41.88 193.44 41.88 191.52 41.88 190.08C32.76 190.08 29.64 183.84 29.64 176.28V158.76C33 162.36 37.44 165.24 43.44 166.08C61.68 168.72 73.56 154.68 73.56 137.76C73.56 120.84 60.6 106.92 42.36 109.44ZM46.56 161.88C39.24 163.08 33.6 154.56 30.96 140.28C28.44 125.88 30.96 115.92 38.28 114.6C45.6 113.28 51.24 121.8 53.76 136.2C56.28 150.6 53.88 160.56 46.56 161.88ZM104.582 147.96V81C104.582 81 103.382 81 101.342 81C94.0219 87.48 81.7819 90.36 74.8219 90.36C74.8219 91.68 74.8219 92.28 74.8219 93.72C83.9419 93.72 85.1419 99.96 85.1419 107.52V147.96C85.1419 155.52 83.9419 161.76 74.8219 161.76C74.8219 163.2 74.8219 165 74.8219 165H114.902C114.902 165 114.902 163.2 114.902 161.76C105.662 161.76 104.582 155.52 104.582 147.96ZM183.093 158.76C180.333 160.08 177.693 159.96 176.373 158.4C175.173 156.84 174.453 152.04 173.733 147.84C173.733 147.84 173.133 143.04 171.453 130.92C169.293 115.8 161.373 109.44 142.173 109.44C135.333 109.44 124.893 111.36 122.013 119.16C120.333 123.36 121.653 126.72 124.773 128.28C128.133 129.84 133.053 129.48 135.933 124.32C131.253 120.48 134.733 113.04 142.293 113.64C148.293 113.64 150.453 120 151.533 126.12C152.853 134.4 145.893 132 134.613 134.28C120.453 137.16 116.013 145.32 117.693 154.08C119.373 162.84 128.733 166.08 138.693 166.08C144.693 166.08 151.413 164.64 155.613 158.16C157.413 163.92 164.973 166.08 171.453 166.08C178.173 166.08 181.893 163.92 184.053 161.4C183.693 160.2 183.573 160.08 183.093 158.76ZM147.213 158.64C142.773 159.84 137.373 156.48 136.533 150.96C135.693 144.84 139.293 140.4 144.453 138.84C150.573 137.16 151.893 136.56 152.853 134.64C153.333 137.64 153.813 142.08 154.173 146.4C154.533 152.16 152.973 157.32 147.213 158.64ZM220.457 151.68C218.657 154.68 216.137 156.12 213.017 155.64C210.137 155.04 208.097 153.48 208.097 147.84V115.32H220.817V110.64H208.097V90.36C208.097 90.36 206.417 90.36 204.377 90.36C201.857 103.32 191.177 110.04 179.297 110.64C179.297 112.08 179.297 115.32 179.297 115.32H188.657C188.657 119.04 188.657 146.88 188.657 146.88C188.657 159.72 196.457 166.08 206.057 166.08C214.937 166.08 219.617 160.32 222.737 152.88L220.457 151.68ZM280.825 146.16C270.265 157.56 247.105 155.64 244.225 140.16L281.305 133.92C281.905 118.08 271.105 109.44 255.025 109.44C237.025 109.44 222.505 120.72 224.185 140.04C225.385 154.44 237.385 166.08 255.505 166.08C270.265 166.08 278.905 156.84 282.865 147.84C282.865 147.72 280.825 146.16 280.825 146.16ZM252.865 113.76C261.145 113.04 263.785 120.6 263.185 132.12L243.505 135.48C242.065 124.08 245.305 114.48 252.865 113.76ZM346.132 129.48C337.852 124.92 332.572 122.76 333.172 118.08C333.532 114.72 336.532 113.28 340.732 113.88C346.972 114.6 349.732 118.32 351.772 128.04H354.652L353.452 109.44C353.452 109.44 352.132 109.44 351.412 109.44C350.332 114 348.532 110.4 340.732 109.44C330.172 108.24 318.292 110.88 316.852 122.52C315.532 134.04 326.332 139.32 334.252 143.4C342.652 147.72 348.052 149.64 347.212 155.88C346.732 159.72 341.572 162.12 335.092 161.76C330.292 161.4 324.772 159.96 324.052 156.72C323.332 153.12 325.732 150.6 329.212 150.84C329.092 146.04 326.572 141.6 320.452 140.76C313.132 139.68 307.612 146.4 309.412 153.72C311.332 161.64 324.772 165.6 334.732 166.08C346.972 166.8 362.212 163.92 364.612 152.16C367.372 138.72 354.532 134.16 346.132 129.48ZM406.344 109.44C401.064 110.16 396.744 112.56 393.624 115.68V109.44C393.624 109.44 392.424 109.44 390.384 109.44C383.184 115.8 370.944 118.8 363.984 118.8C363.984 120.12 363.984 120.6 363.984 122.04C373.104 122.04 374.304 128.28 374.304 135.84V176.28C374.304 183.84 373.104 190.08 363.984 190.08C363.984 191.52 363.984 193.44 363.984 193.44H405.864C405.864 193.44 405.864 191.52 405.864 190.08C396.744 190.08 393.624 183.84 393.624 176.28V158.76C396.984 162.36 401.424 165.24 407.424 166.08C425.664 168.72 437.544 154.68 437.544 137.76C437.544 120.84 424.584 106.92 406.344 109.44ZM410.544 161.88C403.224 163.08 397.584 154.56 394.944 140.28C392.424 125.88 394.944 115.92 402.264 114.6C409.584 113.28 415.224 121.8 417.744 136.2C420.264 150.6 417.864 160.56 410.544 161.88ZM473.583 109.44C455.463 109.44 442.383 120.84 442.383 137.76C442.383 154.68 455.463 166.08 473.583 166.08C491.583 166.08 504.663 154.68 504.663 137.76C504.663 120.84 491.583 109.44 473.583 109.44ZM477.663 161.4C470.463 162.6 464.703 154.08 462.183 139.8C459.663 125.4 462.063 115.44 469.383 114.12C476.703 112.8 482.463 121.32 484.983 135.72C487.503 150.12 484.983 160.08 477.663 161.4ZM547.058 151.68C545.258 154.68 542.738 156.12 539.618 155.64C536.738 155.04 534.698 153.48 534.698 147.84V115.32H547.418V110.64H534.698V90.36C534.698 90.36 533.018 90.36 530.978 90.36C528.458 103.32 517.778 110.04 505.898 110.64C505.898 112.08 505.898 115.32 505.898 115.32H515.258C515.258 119.04 515.258 146.88 515.258 146.88C515.258 159.72 523.058 166.08 532.658 166.08C541.538 166.08 546.218 160.32 549.338 152.88L547.058 151.68Z" fill="#F0A04B"/>
</g>
</svg>
